{
    "asset" : {
        "generator" : "Khronos glTF Blender I/O v1.4.40",
        "version" : "2.0"
    },
    "extensionsUsed" : [
        "KHR_texture_transform"
    ],
    "extensionsRequired" : [
        "KHR_texture_transform"
    ],
    "scene" : 0,
    "scenes" : [
        {
            "name" : "Scene",
            "nodes" : [
                0,
                1
            ]
        }
    ],
    "nodes" : [
        {
            "name" : "Light",
            "rotation" : [
                0.16907575726509094,
                0.7558803558349609,
                -0.27217137813568115,
                0.570947527885437
            ],
            "translation" : [
                4.076245307922363,
                11.996574401855469,
                5.842893600463867
            ]
        },
        {
            "mesh" : 0,
            "name" : "dracula_house",
            "rotation" : [
                0.7071068286895752,
                0,
                0,
                0.7071067094802856
            ]
        }
    ],
    "materials" : [
        {
            "doubleSided" : true,
            "emissiveFactor" : [
                0.20000016689300537,
                0.20000016689300537,
                0.20000016689300537
            ],
            "emissiveTexture" : {
                "extensions" : {
                    "KHR_texture_transform" : {
                        "offset" : [
                            0,
                            -39
                        ],
                        "scale" : [
                            40,
                            40
                        ]
                    }
                },
                "index" : 0,
                "texCoord" : 0
            },
            "name" : "Material.007",
            "pbrMetallicRoughness" : {}
        },
        {
            "doubleSided" : true,
            "emissiveFactor" : [
                0.30000001192092896,
                0.30000001192092896,
                0.30000001192092896
            ],
            "emissiveTexture" : {
                "extensions" : {
                    "KHR_texture_transform" : {
                        "offset" : [
                            0,
                            -39
                        ],
                        "scale" : [
                            40,
                            40
                        ]
                    }
                },
                "index" : 1,
                "texCoord" : 0
            },
            "name" : "Material.006",
            "pbrMetallicRoughness" : {}
        },
        {
            "doubleSided" : true,
            "emissiveFactor" : [
                0.10000011324882507,
                0.10000011324882507,
                0.10000011324882507
            ],
            "emissiveTexture" : {
                "extensions" : {
                    "KHR_texture_transform" : {
                        "offset" : [
                            0,
                            -29
                        ],
                        "scale" : [
                            30,
                            30
                        ]
                    }
                },
                "index" : 2,
                "texCoord" : 0
            },
            "name" : "Material.005",
            "pbrMetallicRoughness" : {}
        },
        {
            "doubleSided" : true,
            "name" : "Material.004",
            "pbrMetallicRoughness" : {}
        },
        {
            "doubleSided" : true,
            "name" : "Material.003",
            "pbrMetallicRoughness" : {}
        },
        {
            "doubleSided" : true,
            "emissiveFactor" : [
                0.20000004768371582,
                0.20000004768371582,
                0.20000004768371582
            ],
            "emissiveTexture" : {
                "index" : 3,
                "texCoord" : 0
            },
            "name" : "Material.002",
            "pbrMetallicRoughness" : {}
        },
        {
            "doubleSided" : true,
            "emissiveFactor" : [
                0.10000000149011612,
                0.10000000149011612,
                0.10000000149011612
            ],
            "emissiveTexture" : {
                "extensions" : {
                    "KHR_texture_transform" : {
                        "offset" : [
                            0,
                            -4
                        ],
                        "scale" : [
                            5,
                            5
                        ]
                    }
                },
                "index" : 4,
                "texCoord" : 0
            },
            "name" : "Material.001",
            "pbrMetallicRoughness" : {}
        }
    ],
    "meshes" : [
        {
            "name" : "dracula_house",
            "primitives" : [
                {
                    "attributes" : {
                        "POSITION" : 0,
                        "NORMAL" : 1
                    },
                    "indices" : 2,
                    "material" : 0
                },
                {
                    "attributes" : {
                        "POSITION" : 3,
                        "NORMAL" : 4
                    },
                    "indices" : 5,
                    "material" : 1
                },
                {
                    "attributes" : {
                        "POSITION" : 6,
                        "NORMAL" : 7
                    },
                    "indices" : 8,
                    "material" : 2
                },
                {
                    "attributes" : {
                        "POSITION" : 9,
                        "NORMAL" : 10
                    },
                    "indices" : 11,
                    "material" : 3
                },
                {
                    "attributes" : {
                        "POSITION" : 12,
                        "NORMAL" : 13
                    },
                    "indices" : 14,
                    "material" : 4
                },
                {
                    "attributes" : {
                        "POSITION" : 15,
                        "NORMAL" : 16
                    },
                    "indices" : 17,
                    "material" : 5
                },
                {
                    "attributes" : {
                        "POSITION" : 18,
                        "NORMAL" : 19
                    },
                    "indices" : 20,
                    "material" : 6
                }
            ]
        }
    ],
    "textures" : [
        {
            "sampler" : 0,
            "source" : 0
        },
        {
            "sampler" : 0,
            "source" : 1
        },
        {
            "sampler" : 0,
            "source" : 0
        },
        {
            "sampler" : 0,
            "source" : 2
        },
        {
            "sampler" : 0,
            "source" : 0
        }
    ],
    "images" : [
        {
            "mimeType" : "image/png",
            "name" : "Untitled",
            "uri" : "test/Untitled.png"
        },
        {
            "mimeType" : "image/png",
            "name" : "Bricks075B_2K_Color",
            "uri" : "test/Bricks075B_2K_Color.png"
        },
        {
            "mimeType" : "image/jpeg",
            "name" : "1000_F_142365544_3dnTu5S5wgt8HWYRpX4tH42DK5EYLGdF",
            "uri" : "test/1000_F_142365544_3dnTu5S5wgt8HWYRpX4tH42DK5EYLGdF.jpg"
        }
    ],
    "accessors" : [
        {
            "bufferView" : 0,
            "componentType" : 5126,
            "count" : 297,
            "max" : [
                7,
                0,
                -0.30000001192092896
            ],
            "min" : [
                0,
                -7,
                -11.699999809265137
            ],
            "type" : "VEC3"
        },
        {
            "bufferView" : 1,
            "componentType" : 5126,
            "count" : 297,
            "type" : "VEC3"
        },
        {
            "bufferView" : 2,
            "componentType" : 5123,
            "count" : 405,
            "type" : "SCALAR"
        },
        {
            "bufferView" : 3,
            "componentType" : 5126,
            "count" : 1216,
            "max" : [
                7.300000190734863,
                0.30000001192092896,
                5.551115123125783e-17
            ],
            "min" : [
                -0.30000001192092896,
                -7.300000190734863,
                -0.30000001192092896
            ],
            "type" : "VEC3"
        },
        {
            "bufferView" : 4,
            "componentType" : 5126,
            "count" : 1216,
            "type" : "VEC3"
        },
        {
            "bufferView" : 5,
            "componentType" : 5123,
            "count" : 1728,
            "type" : "SCALAR"
        },
        {
            "bufferView" : 6,
            "componentType" : 5126,
            "count" : 1512,
            "max" : [
                7.199999809265137,
                0.20000000298023224,
                -1.5800000429153442
            ],
            "min" : [
                -0.20000000298023224,
                -7.199999809265137,
                -13.199999809265137
            ],
            "type" : "VEC3"
        },
        {
            "bufferView" : 7,
            "componentType" : 5126,
            "count" : 1512,
            "type" : "VEC3"
        },
        {
            "bufferView" : 8,
            "componentType" : 5123,
            "count" : 1536,
            "type" : "SCALAR"
        },
        {
            "bufferView" : 9,
            "componentType" : 5126,
            "count" : 3185,
            "max" : [
                8.542426109313965,
                1.542426347732544,
                -1.125
            ],
            "min" : [
                -1.542426347732544,
                -8.542426109313965,
                -9.475000381469727
            ],
            "type" : "VEC3"
        },
        {
            "bufferView" : 10,
            "componentType" : 5126,
            "count" : 3185,
            "type" : "VEC3"
        },
        {
            "bufferView" : 11,
            "componentType" : 5123,
            "count" : 3210,
            "type" : "SCALAR"
        },
        {
            "bufferView" : 12,
            "componentType" : 5126,
            "count" : 2376,
            "max" : [
                6.599999904632568,
                0.004999999888241291,
                -1.125
            ],
            "min" : [
                -0.004999999888241291,
                -7.005000114440918,
                -9.475000381469727
            ],
            "type" : "VEC3"
        },
        {
            "bufferView" : 13,
            "componentType" : 5126,
            "count" : 2376,
            "type" : "VEC3"
        },
        {
            "bufferView" : 14,
            "componentType" : 5123,
            "count" : 2376,
            "type" : "SCALAR"
        },
        {
            "bufferView" : 15,
            "componentType" : 5126,
            "count" : 7374,
            "max" : [
                8.547140121459961,
                1.5471404790878296,
                0
            ],
            "min" : [
                -1.5471404790878296,
                -8.547140121459961,
                -11.949999809265137
            ],
            "type" : "VEC3"
        },
        {
            "bufferView" : 16,
            "componentType" : 5126,
            "count" : 7374,
            "type" : "VEC3"
        },
        {
            "bufferView" : 17,
            "componentType" : 5123,
            "count" : 9504,
            "type" : "SCALAR"
        },
        {
            "bufferView" : 18,
            "componentType" : 5126,
            "count" : 150,
            "max" : [
                10.121025085449219,
                3.778167724609375,
                0.5
            ],
            "min" : [
                -4.092453479766846,
                -10.435310363769531,
                0
            ],
            "type" : "VEC3"
        },
        {
            "bufferView" : 19,
            "componentType" : 5126,
            "count" : 150,
            "type" : "VEC3"
        },
        {
            "bufferView" : 20,
            "componentType" : 5123,
            "count" : 192,
            "type" : "SCALAR"
        }
    ],
    "bufferViews" : [
        {
            "buffer" : 0,
            "byteLength" : 3564,
            "byteOffset" : 0
        },
        {
            "buffer" : 0,
            "byteLength" : 3564,
            "byteOffset" : 3564
        },
        {
            "buffer" : 0,
            "byteLength" : 810,
            "byteOffset" : 7128
        },
        {
            "buffer" : 0,
            "byteLength" : 14592,
            "byteOffset" : 7940
        },
        {
            "buffer" : 0,
            "byteLength" : 14592,
            "byteOffset" : 22532
        },
        {
            "buffer" : 0,
            "byteLength" : 3456,
            "byteOffset" : 37124
        },
        {
            "buffer" : 0,
            "byteLength" : 18144,
            "byteOffset" : 40580
        },
        {
            "buffer" : 0,
            "byteLength" : 18144,
            "byteOffset" : 58724
        },
        {
            "buffer" : 0,
            "byteLength" : 3072,
            "byteOffset" : 76868
        },
        {
            "buffer" : 0,
            "byteLength" : 38220,
            "byteOffset" : 79940
        },
        {
            "buffer" : 0,
            "byteLength" : 38220,
            "byteOffset" : 118160
        },
        {
            "buffer" : 0,
            "byteLength" : 6420,
            "byteOffset" : 156380
        },
        {
            "buffer" : 0,
            "byteLength" : 28512,
            "byteOffset" : 162800
        },
        {
            "buffer" : 0,
            "byteLength" : 28512,
            "byteOffset" : 191312
        },
        {
            "buffer" : 0,
            "byteLength" : 4752,
            "byteOffset" : 219824
        },
        {
            "buffer" : 0,
            "byteLength" : 88488,
            "byteOffset" : 224576
        },
        {
            "buffer" : 0,
            "byteLength" : 88488,
            "byteOffset" : 313064
        },
        {
            "buffer" : 0,
            "byteLength" : 19008,
            "byteOffset" : 401552
        },
        {
            "buffer" : 0,
            "byteLength" : 1800,
            "byteOffset" : 420560
        },
        {
            "buffer" : 0,
            "byteLength" : 1800,
            "byteOffset" : 422360
        },
        {
            "buffer" : 0,
            "byteLength" : 384,
            "byteOffset" : 424160
        }
    ],
    "samplers" : [
        {
            "magFilter" : 9729,
            "minFilter" : 9986
        }
    ],
    "buffers" : [
        {
            "byteLength" : 424544,
            "uri" : "house.bin"
        }
    ]
}
